<svg xmlns="http://www.w3.org/2000/svg" width="256" height="256" viewBox="0 0 256 256">
  <defs>
    <linearGradient id="g" x1="0%" y1="0%" x2="100%" y2="100%">
      <stop offset="0%" stop-color="#003087"/>
      <stop offset="100%" stop-color="#0070E0"/>
    </linearGradient>
    <filter id="s" x="-20%" y="-20%" width="140%" height="140%">
      <feDropShadow dx="0" dy="8" stdDeviation="12" flood-opacity="0.18"/>
    </filter>
  </defs>
  <rect x="20" y="20" width="216" height="216" rx="56" fill="url(#g)" filter="url(#s)"/>
  <path fill="#fff" d="M150.5 77c-29.2 0-52.5 23.3-52.5 52.5S121.3 182 150.5 182h21.5c3.3 0 6-2.7 6-6v-14c0-3.3-2.7-6-6-6h-21.5c-18.4 0-33.5-15.1-33.5-33.5S132.1 89 150.5 89h21.5c3.3 0 6-2.7 6-6V77c0-3.3-2.7-6-6-6h-21.5z"/>
  <circle cx="98" cy="98" r="10" fill="#fff" opacity="0.9"/>
</svg>
